<?xml version="1.0" encoding="utf-8"?>
<!-- Generator: Adobe Illustrator 23.0.6, SVG Export Plug-In . SVG Version: 6.00 Build 0)  -->
<svg version="1.1" id="Layer_1" xmlns="http://www.w3.org/2000/svg" xmlns:xlink="http://www.w3.org/1999/xlink" x="0px" y="0px"
	 viewBox="0 0 1280 720" style="enable-background:new 0 0 1280 720;" xml:space="preserve">
<style type="text/css">
	.st0{fill:#0B0D7C;}
	.st1{fill:#FFFFFF;}
	.st2{font-family:'PlayfairDisplay-Bold';}
	.st3{font-size:92.4288px;}
	.st4{fill:#F1D35C;}
</style>
<rect class="st0" width="1280" height="720"/>
<text transform="matrix(1 0 0 1 45.7163 255.8965)"><tspan x="0" y="0" class="st1 st2 st3">TRUMP ADMINISTRATION</tspan><tspan x="181.2" y="110.9" class="st1 st2 st3">ACCOUNTABILITY </tspan><tspan x="386.7" y="221.8" class="st1 st2 st3">PROJECT</tspan></text>
<polygon class="st4" points="533.1,519.3 540.4,534.2 556.7,536.6 544.9,548.3 547.7,564.7 533.1,557 518.6,564.7 521.4,548.3 
	509.6,536.6 525.9,534.2 "/>
<polygon class="st4" points="586.5,519.3 593.8,534.2 610.1,536.6 598.3,548.3 601.1,564.7 586.5,557 572,564.7 574.8,548.3 
	563,536.6 579.3,534.2 "/>
<polygon class="st4" points="640.9,519.3 648.2,534.2 664.4,536.6 652.7,548.3 655.5,564.7 640.9,557 626.4,564.7 629.1,548.3 
	617.4,536.6 633.6,534.2 "/>
<polygon class="st4" points="694.4,519.3 701.7,534.2 717.9,536.6 706.2,548.3 709,564.7 694.4,557 679.9,564.7 682.7,548.3 
	670.9,536.6 687.2,534.2 "/>
<polygon class="st4" points="746.8,519.3 754.1,534.2 770.4,536.6 758.6,548.3 761.4,564.7 746.8,557 732.3,564.7 735.1,548.3 
	723.3,536.6 739.6,534.2 "/>
</svg>
